<svg xmlns="http://www.w3.org/2000/svg">

      <symbol id="fish" viewBox="0 26 100 48">
       <title>C'est un poisson</title> 
         <desc>Et c'est "accesible"</desc>
        <path
          d="M98.5,47.5C96.5,45.5,81,35,62,35c-2.1,0-4.2,0.1-6.2,0.3L39,26c0,4.5,1.3,9,2.4,12.1C31.7,40.7,23.3,44,16,44L0,34
  c0,8,4,16,4,16s-4,8-4,16l16-10c7.3,0,15.7,3.3,25.4,5.9C40.3,65,39,69.5,39,74l16.8-9.3c2,0.2,4.1,0.3,6.2,0.3
  c19,0,34.5-10.5,36.5-12.5S100.5,49.5,98.5,47.5z M85.5,50c-1.4,0-2.5-1.1-2.5-2.5s1.1-2.5,2.5-2.5s2.5,1.1,2.5,2.5
  C88,48.9,86.9,50,85.5,50z"
        />
      </symbol>

    <symbol viewBox="0 0 512 512" id="ion-accessibility"><path fill="currentColor" d="M256 112a56 56 0 1 1 56-56a56.06 56.06 0 0 1-56 56Z"></path><path fill="currentColor" d="m432 112.8l-.45.12l-.42.13c-1 .28-2 .58-3 .89c-18.61 5.46-108.93 30.92-172.56 30.92c-59.13 0-141.28-22-167.56-29.47a73.79 73.79 0 0 0-8-2.58c-19-5-32 14.3-32 31.94c0 17.47 15.7 25.79 31.55 31.76v.28l95.22 29.74c9.73 3.73 12.33 7.54 13.6 10.84c4.13 10.59.83 31.56-.34 38.88l-5.8 45l-32.19 176.19q-.15.72-.27 1.47l-.23 1.27c-2.32 16.15 9.54 31.82 32 31.82c19.6 0 28.25-13.53 32-31.94s28-157.57 42-157.57s42.84 157.57 42.84 157.57c3.75 18.41 12.4 31.94 32 31.94c22.52 0 34.38-15.74 32-31.94a57.17 57.17 0 0 0-.76-4.06L329 301.27l-5.79-45c-4.19-26.21-.82-34.87.32-36.9a1.09 1.09 0 0 0 .08-.15c1.08-2 6-6.48 17.48-10.79l89.28-31.21a16.9 16.9 0 0 0 1.62-.52c16-6 32-14.3 32-31.93S451 107.81 432 112.8Z"></path></symbol>
</svg>